<?xml version="1.0" encoding="UTF-8" standalone="no"?>
<svg
   xmlns:dc="http://purl.org/dc/elements/1.1/"
   xmlns:cc="http://creativecommons.org/ns#"
   xmlns:rdf="http://www.w3.org/1999/02/22-rdf-syntax-ns#"
   xmlns:svg="http://www.w3.org/2000/svg"
   xmlns="http://www.w3.org/2000/svg"
   xmlns:sodipodi="http://sodipodi.sourceforge.net/DTD/sodipodi-0.dtd"
   xmlns:inkscape="http://www.inkscape.org/namespaces/inkscape"
   version="1.1"
   id="svg78"
   width="500"
   height="500"
   viewBox="0 0 500 500"
   sodipodi:docname="profile.svg"
   inkscape:version="1.0.2 (e86c870879, 2021-01-15)">
  <metadata
     id="metadata84">
    <rdf:RDF>
      <cc:Work
         rdf:about="">
        <dc:format>image/svg+xml</dc:format>
        <dc:type
           rdf:resource="http://purl.org/dc/dcmitype/StillImage" />
        <dc:title></dc:title>
      </cc:Work>
    </rdf:RDF>
  </metadata>
  <defs
     id="defs82" />
  <sodipodi:namedview
     pagecolor="#ffffff"
     bordercolor="#666666"
     borderopacity="1"
     objecttolerance="10"
     gridtolerance="10"
     guidetolerance="10"
     inkscape:pageopacity="0"
     inkscape:pageshadow="2"
     inkscape:window-width="1860"
     inkscape:window-height="997"
     id="namedview80"
     showgrid="false"
     fit-margin-top="0"
     fit-margin-left="0"
     fit-margin-right="0"
     fit-margin-bottom="0"
     inkscape:zoom="1.2492151"
     inkscape:cx="369.77046"
     inkscape:cy="217.17704"
     inkscape:window-x="30"
     inkscape:window-y="53"
     inkscape:window-maximized="0"
     inkscape:current-layer="g86" />
  <g
     inkscape:groupmode="layer"
     inkscape:label="Image"
     id="g86"
     transform="translate(-9.411594,-4.2338109)">
    <g
       id="g122"
       transform="translate(9.411594,4.2338109)">
      <path
         style="fill:#00fdb5"
         d="m 147.5,267.51543 c -13.2355,-2.46571 -16.84588,-4.83908 -21.85135,-14.36451 -3.98425,-7.58203 -7.20981,-18.785 -11.09907,-38.54903 -2.86606,-14.56451 -4.22446,-17.02661 -13.08478,-23.71622 -5.698668,-4.30253 -7.394772,-8.04423 -6.058981,-13.36645 1.477142,-5.8854 9.785201,-7.35917 46.253051,-8.20485 29.15457,-0.67609 54.95944,0.72222 73.34113,3.9742 16.54099,2.92634 54.73378,3.19018 67.5,0.4663 12.99027,-2.77168 26.31956,-3.82981 56,-4.44551 38.01244,-0.78854 63.20774,1.40752 65.51035,5.70998 1.09958,2.05458 1.31928,7.95808 0.38662,10.38856 -0.33167,0.86431 -3.46882,3.82361 -6.97144,6.57621 -3.50262,2.7526 -7.0588,6.33982 -7.90262,7.97158 -0.84382,1.63177 -3.09121,10.52178 -4.99421,19.75558 -3.72305,18.06517 -5.72385,24.72865 -10.12234,33.71153 -3.61326,7.37925 -6.87149,10.03563 -15.7229,12.81863 -6.5404,2.05638 -9.06337,2.2528 -28.18346,2.19411 -28.83906,-0.0885 -37.90239,-2.40547 -46.17562,-11.80437 -7.45334,-8.46744 -11.48725,-18.84033 -16.3354,-42.00531 -1.77699,-8.49062 -3.59929,-14.65558 -4.69634,-15.88802 -3.87912,-4.35785 -12.45851,-5.93068 -20.3669,-3.73378 -6.1822,1.71737 -7.45623,4.1002 -10.92789,20.43857 -5.45106,25.6539 -11.27835,38.0707 -21.46775,45.74352 -5.29874,3.99007 -9.72864,5.31041 -23.0301,6.86418 -11.11841,1.29876 -31.62956,1.02448 -40,-0.5349 z"
         id="path128" />
      <path
         style="fill:#fd0097"
         d="M 138.90593,378.00024 C 115.32175,375.27342 94.827723,365.64993 85.096736,352.73279 75.520159,340.02061 72.593162,330.00845 73.200355,312.03972 c 0.375576,-11.11447 0.735017,-13.18801 3.162474,-18.24356 4.472819,-9.31533 11.475197,-13.89282 21.608783,-14.12578 6.840078,-0.15724 11.618618,2.47653 14.816478,8.16637 2.81677,5.01176 2.80496,6.06742 -0.0381,3.40418 -4.72789,-4.42888 -13.601072,-5.6234 -18.82955,-2.53487 C 89.208435,291.48952 87.5,296.22435 87.5,306.5 c 0,8.36704 0.263333,9.53872 3.744282,16.65998 8.648401,17.69273 24.575618,23.58545 48.344918,17.88655 15.2168,-3.64836 25.62792,-8.43836 56.0512,-25.78831 10.52723,-6.00352 21.71286,-11.72463 24.85696,-12.71357 7.2634,-2.28462 16.96999,-1.71051 24.25264,1.43446 l 5.25,2.26718 5.25,-2.28259 c 3.32394,-1.44517 8.00152,-2.44861 12.75,-2.73514 9.65189,-0.5824 13.87809,1.09497 38.77772,15.39087 34.36822,19.7322 48.54165,25.23446 67.22228,26.0963 9.04415,0.41725 11.28298,0.18861 16.14709,-1.649 13.96237,-5.27486 23.74075,-21.35643 22.66657,-37.27755 C 412.05786,292.58706 407.5145,287 399.16081,287 c -4.89624,0 -8.90867,1.42865 -11.91081,4.24093 -2.7372,2.56409 -2.90403,1.317 -0.36667,-2.74093 4.89662,-7.83103 10.2001,-10.19099 19.10624,-8.50198 C 420.40402,282.73167 427,293.62431 427,314.69475 c 0,33.65245 -19.02848,54.24712 -57.32018,62.03808 -11.50277,2.34039 -45.51807,2.28952 -58.41559,-0.0874 -26.10338,-4.81059 -44.40735,-13.36254 -56.18738,-26.25176 L 250,344.83883 l -5.07685,5.55488 c -11.84964,12.96539 -31.2745,21.98216 -56.39333,26.17706 -10.93078,1.82547 -39.16465,2.63877 -49.62389,1.42947 z"
         id="path126" />
      <path
         style="fill:#230040"
         d="M 0,250 V 0 H 250 500 V 250 500 H 250 0 Z m 188.52982,126.57077 c 25.11883,-4.1949 44.54369,-13.21167 56.39333,-26.17706 L 250,344.83883 l 5.07685,5.55488 c 11.78003,12.88922 30.084,21.44117 56.18738,26.25176 12.89752,2.37688 46.91282,2.42775 58.41559,0.0874 26.53618,-5.39914 42.38709,-15.93224 51.6233,-34.30423 C 425.3327,334.41325 427,326.29643 427,314.69475 c 0,-21.07044 -6.59598,-31.96308 -21.01043,-34.69673 -8.90614,-1.68901 -14.20962,0.67095 -19.10624,8.50198 -2.53736,4.05793 -2.37053,5.30502 0.36667,2.74093 3.00214,-2.81228 7.01457,-4.24093 11.91081,-4.24093 8.35369,0 12.89705,5.58706 13.65285,16.78918 1.07418,15.92112 -8.7042,32.00269 -22.66657,37.27755 -4.86411,1.83761 -7.10294,2.06625 -16.14709,1.649 -18.68063,-0.86184 -32.85406,-6.3641 -67.22228,-26.0963 C 281.87809,302.32353 277.65189,300.64616 268,301.22856 c -4.74848,0.28653 -9.42606,1.28997 -12.75,2.73514 l -5.25,2.28259 -5.25,-2.26718 c -7.28265,-3.14497 -16.98924,-3.71908 -24.25264,-1.43446 -3.1441,0.98894 -14.32973,6.71005 -24.85696,12.71357 -30.42328,17.34995 -40.8344,22.13995 -56.0512,25.78831 -23.7693,5.6989 -39.696517,-0.19382 -48.344918,-17.88655 C 87.763333,316.03872 87.5,314.86704 87.5,306.5 c 0,-10.27565 1.708435,-15.01048 6.42045,-17.79394 5.228478,-3.08853 14.10166,-1.89401 18.82955,2.53487 2.84305,2.66324 2.85486,1.60758 0.0381,-3.40418 -3.19786,-5.68984 -7.9764,-8.32361 -14.816478,-8.16637 -10.133586,0.23296 -17.135964,4.81045 -21.608783,14.12578 -2.427457,5.05555 -2.786898,7.12909 -3.162474,18.24356 -0.607193,17.96873 2.319804,27.98089 11.896381,40.69307 9.730987,12.91714 30.225014,22.54063 53.809194,25.26745 10.45924,1.2093 38.69311,0.396 49.62389,-1.42947 z M 187.5,268.05033 c 13.30146,-1.55377 17.73136,-2.87411 23.0301,-6.86418 10.1894,-7.67282 16.01669,-20.08962 21.46775,-45.74352 3.47166,-16.33837 4.74569,-18.7212 10.92789,-20.43857 7.90839,-2.1969 16.48778,-0.62407 20.3669,3.73378 1.09705,1.23244 2.91935,7.3974 4.69634,15.88802 4.84815,23.16498 8.88206,33.53787 16.3354,42.00531 8.27323,9.3989 17.33656,11.71585 46.17562,11.80437 19.12009,0.0587 21.64306,-0.13773 28.18346,-2.19411 8.85141,-2.783 12.10964,-5.43938 15.7229,-12.81863 4.39849,-8.98288 6.39929,-15.64636 10.12234,-33.71153 1.903,-9.2338 4.15039,-18.12381 4.99421,-19.75558 0.84382,-1.63176 4.4,-5.21898 7.90262,-7.97158 3.50262,-2.7526 6.63977,-5.7119 6.97144,-6.57621 0.93266,-2.43048 0.71296,-8.33398 -0.38662,-10.38856 -2.30261,-4.30246 -27.49791,-6.49852 -65.51035,-5.70998 -29.68044,0.6157 -43.00973,1.67383 -56,4.44551 -12.76622,2.72388 -50.95901,2.46004 -67.5,-0.4663 -18.38169,-3.25198 -44.18656,-4.65029 -73.34113,-3.9742 -36.46785,0.84568 -44.775909,2.31945 -46.253051,8.20485 -1.335791,5.32222 0.360313,9.06392 6.058981,13.36645 8.86032,6.68961 10.21872,9.15171 13.08478,23.71622 3.88926,19.76403 7.11482,30.967 11.09907,38.54903 5.00547,9.52543 8.61585,11.8988 21.85135,14.36451 8.37044,1.55938 28.88159,1.83366 40,0.5349 z"
         id="path124" />
    </g>
  </g>
</svg>
