<?xml version="1.0" encoding="UTF-8" standalone="no"?>
<svg
   xmlns:dc="http://purl.org/dc/elements/1.1/"
   xmlns:cc="http://creativecommons.org/ns#"
   xmlns:rdf="http://www.w3.org/1999/02/22-rdf-syntax-ns#"
   xmlns:svg="http://www.w3.org/2000/svg"
   xmlns="http://www.w3.org/2000/svg"
   xmlns:sodipodi="http://sodipodi.sourceforge.net/DTD/sodipodi-0.dtd"
   xmlns:inkscape="http://www.inkscape.org/namespaces/inkscape"
   version="1.1"
   id="svg146"
   width="1000"
   height="1000"
   viewBox="0 0 1000 1000"
   sodipodi:docname="wb.svg"
   inkscape:version="1.0.2 (e86c870879, 2021-01-15)">
  <metadata
     id="metadata152">
    <rdf:RDF>
      <cc:Work
         rdf:about="">
        <dc:format>image/svg+xml</dc:format>
        <dc:type
           rdf:resource="http://purl.org/dc/dcmitype/StillImage" />
        <dc:title></dc:title>
      </cc:Work>
    </rdf:RDF>
  </metadata>
  <defs
     id="defs150" />
  <sodipodi:namedview
     pagecolor="#ffffff"
     bordercolor="#666666"
     borderopacity="1"
     objecttolerance="10"
     gridtolerance="10"
     guidetolerance="10"
     inkscape:pageopacity="0"
     inkscape:pageshadow="2"
     inkscape:window-width="1860"
     inkscape:window-height="997"
     id="namedview148"
     showgrid="false"
     inkscape:zoom="0.52744917"
     inkscape:cx="958.35632"
     inkscape:cy="384.13723"
     inkscape:window-x="30"
     inkscape:window-y="53"
     inkscape:window-maximized="0"
     inkscape:current-layer="g154" />
  <g
     inkscape:groupmode="layer"
     inkscape:label="Image"
     id="g154"
     transform="translate(1243.6375,-61.419905)">
    <g
       id="g206"
       transform="translate(-1243.6375,61.419905)">
      <path
         style="fill:#c599fd"
         d="M 0,500 V 0 h 500 500 v 500 500 H 500 0 Z"
         id="path228" />
      <path
         style="fill:#00fdb5"
         d="M 0,500 V 0 h 500 500 v 500 500 H 500 0 Z m 765.3647,396.07592 c 19.5804,-4.94509 35.50776,-11.353 51.25613,-20.62141 C 890.39824,832.03419 926.61022,745.84538 906.09306,662.5 893.69872,612.15138 860.66542,568.38914 815.50541,542.49026 799.69234,533.42159 783.88251,527.03486 766,522.49145 c -12.20923,-3.10201 -13.32319,-3.18958 -20.5,-1.61164 -25.11147,5.52118 -53.03566,18.54874 -74.63639,34.82034 -40.40856,30.43934 -66.98542,75.89317 -74.43224,127.29985 -2.4859,17.16057 -1.5571,48.08769 1.93803,64.53264 13.98035,65.77899 58.42378,117.99355 121.00708,142.16572 8.33817,3.22054 29.1389,9.08181 32.76684,9.23311 0.90382,0.0377 6.85345,-1.24731 13.22138,-2.85555 z m 1.44396,-181.64179 C 765.46176,712.27036 760.58585,703.8625 755.9733,695.75 L 747.58685,681 H 724.79342 C 707.78809,681 702,680.69662 702,679.8053 c 0,-0.65708 4.96034,-9.83236 11.02297,-20.38952 l 11.02297,-19.19482 -11.02297,-19.13623 C 706.96034,610.55981 702,601.51009 702,600.97425 c 0,-0.60306 8.66784,-0.98374 22.75,-0.99916 l 22.75,-0.0249 9.74985,-17.28375 c 5.36241,-9.50607 10.35531,-18.11177 11.09532,-19.1238 1.21545,-1.66223 2.39922,0.009 12.25015,17.29856 l 10.90468,19.1386 22.75,0.0101 c 12.58745,0.006 22.75,0.40696 22.75,0.89851 0,0.48863 -4.99189,9.53077 -11.09309,20.09365 l -11.09308,19.20523 11.09308,19.2834 C 832.00811,670.07656 837,679.25942 837,679.87704 837,680.67491 830.38009,681 814.13256,681 h -22.86743 l -9.60479,16.77089 c -13.03137,22.75402 -11.87084,21.45193 -14.85168,16.66324 z"
         id="path226" />
      <path
         style="fill:#8f65bd"
         d="M 0,500 V 0 h 500 500 v 500 500 H 500 0 Z m 765.3647,396.07592 c 19.5804,-4.94509 35.50776,-11.353 51.25613,-20.62141 C 890.39824,832.03419 926.61022,745.84538 906.09306,662.5 893.69872,612.15138 860.66542,568.38914 815.50541,542.49026 799.69234,533.42159 783.88251,527.03486 766,522.49145 c -12.20923,-3.10201 -13.32319,-3.18958 -20.5,-1.61164 -25.11147,5.52118 -53.03566,18.54874 -74.63639,34.82034 -40.40856,30.43934 -66.98542,75.89317 -74.43224,127.29985 -2.4859,17.16057 -1.5571,48.08769 1.93803,64.53264 13.98035,65.77899 58.42378,117.99355 121.00708,142.16572 8.33817,3.22054 29.1389,9.08181 32.76684,9.23311 0.90382,0.0377 6.85345,-1.24731 13.22138,-2.85555 z m 1.44396,-181.64179 C 765.46176,712.27036 760.58585,703.8625 755.9733,695.75 L 747.58685,681 H 724.79342 C 707.78809,681 702,680.69662 702,679.8053 c 0,-0.65708 4.96034,-9.83236 11.02297,-20.38952 l 11.02297,-19.19482 -11.02297,-19.13623 C 706.96034,610.55981 702,601.51009 702,600.97425 c 0,-0.60306 8.66784,-0.98374 22.75,-0.99916 l 22.75,-0.0249 9.74985,-17.28375 c 5.36241,-9.50607 10.35531,-18.11177 11.09532,-19.1238 1.21545,-1.66223 2.39922,0.009 12.25015,17.29856 l 10.90468,19.1386 22.75,0.0101 c 12.58745,0.006 22.75,0.40696 22.75,0.89851 0,0.48863 -4.99189,9.53077 -11.09309,20.09365 l -11.09308,19.20523 11.09308,19.2834 C 832.00811,670.07656 837,679.25942 837,679.87704 837,680.67491 830.38009,681 814.13256,681 h -22.86743 l -9.60479,16.77089 c -13.03137,22.75402 -11.87084,21.45193 -14.85168,16.66324 z M 443.51332,522.25 c -0.28067,-2.0625 -1.21147,-9.15 -2.06844,-15.75 C 433.10503,442.27025 411.3763,387.41327 377.67312,345.5 369.51503,335.35459 348.07139,314.46133 337,305.8708 299.05541,276.42877 252.44475,254.80488 196.5,240.68925 c -21.70666,-5.4769 -34.29985,-7.98968 -53.5,-10.67513 -15.97318,-2.2341 -34.26944,-4.02438 -34.91054,-3.41598 -0.22579,0.21428 0.27794,1.17986 1.11941,2.14573 1.60258,1.83952 122.84226,148.8951 195.60533,237.25613 23.32493,28.325 43.39739,52.52841 44.60547,53.78537 l 2.19652,2.28536 12.4419,-1.6405 c 21.14447,-2.78797 53.69164,-0.96875 71.44191,3.99322 8.14163,2.27594 8.60182,2.15112 8.01332,-2.17345 z M 700.2607,445 c 32.20482,-68.56508 32.77924,-157.53867 1.63828,-253.7567 -4.27857,-13.21975 -15.5089,-42.6545 -18.42732,-48.2981 l -1.6707,-3.23078 -47.90919,118.33408 c -26.35006,65.08374 -47.56777,118.6167 -47.15048,118.96211 0.41729,0.34542 4.13371,1.89635 8.25871,3.44651 35.53857,13.35527 70.7705,41.79215 92,74.25633 l 4.5,6.88141 2.38414,-4.04743 C 695.19541,455.32134 698.06486,449.675 700.2607,445 Z"
         id="path224" />
      <path
         style="fill:#fd0d81"
         d="M 0,500 V 0 h 500 500 v 500 500 H 500 0 Z m 747,400.01771 c 41.97156,-6.06571 78.49271,-24.37513 108.58951,-54.43997 27.24824,-27.21932 44.93771,-59.91786 53.04109,-98.0451 C 912.13269,731.05497 913.05629,700.13825 910.55844,683 904.3556,640.441 885.78278,602.91098 856.36661,573.49481 829.87737,547.00558 800.0921,530.51738 761,520.70285 l -12.5,-3.13827 -29,-0.005 -29,-0.005 -14.96219,3.74664 c -49.40151,12.37049 -87.89346,38.85928 -115.83916,79.71641 l -6.34524,9.27685 7.19378,14.26625 c 8.05592,15.97602 14.21957,33.63828 17.65239,50.58386 2.05805,10.15929 2.29671,14.09502 2.26522,37.35571 -0.0309,22.85194 -0.30157,27.27133 -2.23512,36.5 -3.32607,15.87509 -9.92735,34.95802 -16.92688,48.93212 l -6.28167,12.54093 4.6478,7.01348 c 9.74101,14.69905 27.64931,33.81472 41.83107,44.65131 26.29847,20.09521 58.77599,33.75568 90,37.85518 4.95,0.6499 9.675,1.31513 10.5,1.4783 5.78758,1.14468 33.1334,0.26134 45,-1.45361 z M 760.63392,703.25 c -4.67775,-8.1125 -9.64793,-16.6625 -11.04484,-19 L 747.04924,680 H 724.52462 C 712.13608,680 702,679.80677 702,679.5706 c 0,-0.23617 4.95,-9.02276 11,-19.52575 6.05,-10.50299 11,-19.36817 11,-19.7004 0,-0.33223 -4.95,-9.26224 -11,-19.84445 -6.05,-10.58221 -11,-19.5238 -11,-19.87019 C 702,600.28341 712.26115,600 724.80255,600 h 22.80255 l 10.83296,-19.02903 c 9.42202,-16.55058 10.9893,-18.79732 12.03322,-17.25 0.66014,0.97847 5.60347,9.54153 10.98518,19.02903 l 9.78492,17.25 h 22.87931 C 826.70431,600 837,600.27439 837,600.60976 c 0,0.33537 -4.48645,8.38446 -9.9699,17.88687 -5.48344,9.50242 -10.48156,18.4001 -11.10692,19.77263 -1.03149,2.26387 -0.10602,4.28049 9.96989,21.72472 C 832.00188,670.57004 837,679.39796 837,679.61159 c 0,0.21362 -10.2375,0.39461 -22.75,0.40219 l -22.75,0.0138 -10.88232,18.98623 C 774.6324,709.4562 769.60116,718 769.43713,718 c -0.16402,0 -4.12547,-6.6375 -8.80321,-14.75 z M 441.96607,510.23799 C 433.28907,442.62996 412.08189,388.29075 377.67312,345.5 369.51503,335.35459 348.07139,314.46133 337,305.8708 299.05541,276.42877 252.44475,254.80488 196.5,240.68925 c -21.70666,-5.4769 -34.29985,-7.98968 -53.5,-10.67513 -15.7643,-2.20488 -34.26655,-4.02654 -34.89127,-3.43525 -0.2152,0.20369 1.18959,2.29427 3.12175,4.64573 1.93217,2.35147 38.03832,46.1254 80.23589,97.2754 42.19757,51.15 95.46778,115.77308 118.37824,143.60685 22.91047,27.83377 41.90535,50.47381 42.21087,50.31121 0.30551,-0.16261 2.55551,-0.55649 5,-0.87529 2.44448,-0.31881 6.69452,-0.89382 9.44452,-1.27781 2.75,-0.38399 12.875,-0.68863 22.5,-0.67698 15.56495,0.0188 20.94944,0.3497 30,1.8433 1.375,0.22692 4.075,0.65857 6,0.95922 1.925,0.30066 6.65,1.39826 10.5,2.43911 3.85,1.04085 7.31995,1.61254 7.711,1.27042 0.39106,-0.34212 -0.16916,-7.48004 -1.24493,-15.86204 z M 700.2607,445 c 32.20482,-68.56508 32.77924,-157.53867 1.63828,-253.7567 -4.27857,-13.21975 -15.5089,-42.6545 -18.42732,-48.2981 l -1.6707,-3.23078 -47.90919,118.33408 c -26.35006,65.08374 -47.56777,118.6167 -47.15048,118.96211 0.41729,0.34542 4.13371,1.89635 8.25871,3.44651 35.53857,13.35527 70.7705,41.79215 92,74.25633 l 4.5,6.88141 2.38414,-4.04743 C 695.19541,455.32134 698.06486,449.675 700.2607,445 Z"
         id="path222" />
      <path
         style="fill:#b4086a"
         d="M 0,500 V 0 h 500 500 v 500 500 H 500 0 Z m 430.5,399.97226 c 35.08015,-7.735 68.90009,-26.45092 94.19212,-52.12584 11.63357,-11.80968 16.67605,-17.90688 24.48582,-29.60744 l 5.51398,-8.26101 4.8124,7.26101 c 9.90908,14.95094 27.71141,33.98395 41.99568,44.89886 25.26274,19.30379 54.37418,31.92894 86.5,37.51362 14.10501,2.45198 40.45452,2.88587 55.53375,0.91445 43.40455,-5.67459 81.3111,-24.27615 112.05576,-54.98817 27.24824,-27.21932 44.93771,-59.91786 53.04109,-98.0451 C 912.13269,731.05497 913.05629,700.13825 910.55844,683 904.3556,640.441 885.78278,602.91098 856.36661,573.49481 829.87737,547.00558 800.0921,530.51738 761,520.70285 l -12.5,-3.13827 -29,-0.005 -29,-0.005 -14.96219,3.74664 c -49.91521,12.49912 -91.00804,41.18358 -117.40527,81.95362 -2.4021,3.71 -4.74877,6.74546 -5.21481,6.74546 -0.46605,0 -1.38256,-1.0125 -2.03668,-2.25 -3.5783,-6.76956 -16.67603,-22.73659 -27.27927,-33.25528 -19.81539,-19.65739 -46.33509,-36.24369 -71.18836,-44.52357 -5.18473,-1.72729 -9.22016,-3.47483 -8.96764,-3.88342 0.76815,-1.2429 -3.24705,-30.12874 -6.47227,-46.56231 C 426.54883,426.40823 406.74933,381.65917 377.67312,345.5 369.51503,335.35459 348.07139,314.46133 337,305.8708 299.05541,276.42877 252.44475,254.80488 196.5,240.68925 c -21.70666,-5.4769 -34.29985,-7.98968 -53.5,-10.67513 -15.7643,-2.20488 -34.26655,-4.02654 -34.89127,-3.43525 -0.2152,0.20369 1.18959,2.29427 3.12175,4.64573 1.93217,2.35147 38.03832,46.1254 80.23589,97.2754 42.19757,51.15 95.46778,115.77308 118.37824,143.60685 22.91047,27.83377 41.90535,50.47381 42.21087,50.31121 0.30551,-0.16261 2.55551,-0.55649 5,-0.87529 2.44448,-0.31881 6.69452,-0.89382 9.44452,-1.27781 6.22381,-0.86905 38.11157,-0.87992 45.3949,-0.0155 7.85404,0.93219 8.24682,2.26568 1.08251,3.67517 -9.37801,1.84501 -28.2339,8.61935 -40.47741,14.54229 -19.16491,9.27124 -34.85164,20.51983 -51.33976,36.81457 -28.7449,28.40776 -47.31644,63.99643 -54.3733,104.19561 -2.59169,14.7635 -3.07444,46.05728 -0.91821,59.52287 3.46681,21.65013 8.42473,37.59324 17.65299,56.76643 24.46495,50.82987 69.77046,88.23069 124.47828,102.7599 6.875,1.82585 12.725,3.34463 13,3.37506 0.275,0.0304 4.55,-0.83768 9.5,-1.92913 z M 446.96148,813.7816 C 441.84172,804.82672 436.8003,796.2625 435.75832,794.75 L 433.86381,792 h -22.4319 C 399.09436,792 389,791.82227 389,791.60504 c 0,-0.21723 4.95,-9.0395 11,-19.60504 6.05,-10.56554 11,-19.57954 11,-20.03111 0,-0.45157 -4.95,-9.37718 -11,-19.8347 C 393.95,721.67667 389,712.8684 389,712.56026 389,712.25212 399.25083,712 411.77961,712 h 22.77961 l 10.22118,-17.75 c 5.62165,-9.7625 10.60972,-18.3527 11.08461,-19.08933 0.60467,-0.93793 4.12588,4.37439 11.74921,17.72558 l 10.88578,19.06489 22.75,0.0244 c 12.5125,0.0134 22.75,0.30784 22.75,0.65424 0,0.34639 -4.9956,9.36774 -11.10134,20.04744 l -11.10133,19.41764 11.10133,19.4495 C 519.0044,782.24162 524,791.21182 524,791.47817 c 0,0.26636 -10.22068,0.60523 -22.71262,0.75306 L 478.57476,792.5 468.03738,810.69406 c -5.79556,10.00673 -10.8141,18.45845 -11.15231,18.7816 -0.33821,0.32314 -4.80383,-6.73918 -9.92359,-15.69406 z M 760.63392,703.25 c -4.67775,-8.1125 -9.64793,-16.6625 -11.04484,-19 L 747.04924,680 H 724.52462 C 712.13608,680 702,679.80677 702,679.5706 c 0,-0.23617 4.95,-9.02276 11,-19.52575 6.05,-10.50299 11,-19.36817 11,-19.7004 0,-0.33223 -4.95,-9.26224 -11,-19.84445 -6.05,-10.58221 -11,-19.5238 -11,-19.87019 C 702,600.28341 712.26115,600 724.80255,600 h 22.80255 l 10.83296,-19.02903 c 9.42202,-16.55058 10.9893,-18.79732 12.03322,-17.25 0.66014,0.97847 5.60347,9.54153 10.98518,19.02903 l 9.78492,17.25 h 22.87931 C 826.70431,600 837,600.27439 837,600.60976 c 0,0.33537 -4.48645,8.38446 -9.9699,17.88687 -5.48344,9.50242 -10.48156,18.4001 -11.10692,19.77263 -1.03149,2.26387 -0.10602,4.28049 9.96989,21.72472 C 832.00188,670.57004 837,679.39796 837,679.61159 c 0,0.21362 -10.2375,0.39461 -22.75,0.40219 l -22.75,0.0138 -10.88232,18.98623 C 774.6324,709.4562 769.60116,718 769.43713,718 c -0.16402,0 -4.12547,-6.6375 -8.80321,-14.75 z M 700.2607,445 c 32.20482,-68.56508 32.77924,-157.53867 1.63828,-253.7567 -4.27857,-13.21975 -15.5089,-42.6545 -18.42732,-48.2981 l -1.6707,-3.23078 -47.90919,118.33408 c -26.35006,65.08374 -47.56777,118.6167 -47.15048,118.96211 0.41729,0.34542 4.13371,1.89635 8.25871,3.44651 35.53857,13.35527 70.7705,41.79215 92,74.25633 l 4.5,6.88141 2.38414,-4.04743 C 695.19541,455.32134 698.06486,449.675 700.2607,445 Z"
         id="path220" />
      <path
         style="fill:#0f837d"
         d="M 0,500 V 0 h 500 500 v 500 500 H 500 0 Z m 417.42106,402.5354 c 53.03236,-7.67326 102.3335,-39.00226 131.77272,-83.73653 2.82279,-4.28938 5.39648,-7.79493 5.71929,-7.79012 0.32281,0.005 2.37751,2.7875 4.56599,6.18375 9.0048,13.97431 27.80417,34.08201 42.02094,44.94534 25.26274,19.30379 54.37418,31.92894 86.5,37.51362 14.10501,2.45198 40.45452,2.88587 55.53375,0.91445 43.40455,-5.67459 81.3111,-24.27615 112.05576,-54.98817 27.24824,-27.21932 44.93771,-59.91786 53.04109,-98.0451 C 912.13269,731.05497 913.05629,700.13825 910.55844,683 904.3556,640.441 885.78278,602.91098 856.36661,573.49481 829.77982,546.90802 799.15447,529.99906 761,520.8407 c -10.6265,-2.55072 -15.42266,-3.11078 -32,-3.73674 -19.48596,-0.73578 -38.39819,0.0517 -45,1.87367 -1.925,0.53127 -8.18756,2.13067 -13.91681,3.55423 -43.64295,10.84405 -84.22671,39.66448 -110.8718,78.73528 l -5.97892,8.76715 -6.69071,-9.43885 C 538.7591,589.61612 527.81634,577.41289 516.5,567.0932 c -16.17941,-14.75445 -43.79773,-30.93182 -64.72069,-37.90999 -4.79638,-1.59967 -8.52813,-3.10105 -8.29279,-3.3364 0.77132,-0.77132 -3.41055,-30.5133 -6.51301,-46.32139 C 426.54883,426.40823 406.74933,381.65917 377.67312,345.5 369.51503,335.35459 348.07139,314.46133 337,305.8708 299.05541,276.42877 252.44475,254.80488 196.5,240.68925 c -21.70666,-5.4769 -34.29985,-7.98968 -53.5,-10.67513 -15.97318,-2.2341 -34.26944,-4.02438 -34.91054,-3.41598 -0.22579,0.21428 0.27794,1.17986 1.11941,2.14573 0.84146,0.96587 35.65507,43.15613 77.36357,93.75613 41.7085,50.6 95.76726,116.1658 120.1306,145.70178 C 331.06637,497.73777 351,522.12269 351,522.39051 c 0,0.26782 -2.1375,0.8025 -4.75,1.18818 -7.2213,1.06606 -29.38086,8.93503 -41.73292,14.81955 -21.44868,10.21817 -45.24357,28.58235 -61.37592,47.36809 -67.95352,79.13025 -61.54393,196.62693 14.56973,267.08328 43.56731,40.32908 100.96533,58.18559 159.71017,49.68579 z m 28.11865,-91.94346 -10.71283,-18.5555 -22.78664,-0.26822 L 389.25359,791.5 400.57857,771.73208 411.90354,751.96417 400.5068,732.23208 389.11006,712.5 l 23.06148,-0.5 23.06148,-0.5 10.13349,-17.55103 c 5.57342,-9.65306 10.50744,-17.75306 10.96449,-18 0.45705,-0.24693 5.50122,7.65103 11.20926,17.55103 l 10.37825,18 23.05255,0.5 23.05254,0.5 -11.0118,19.16709 c -6.05649,10.5419 -10.99997,19.7669 -10.98552,20.5 0.0145,0.7331 4.93748,9.88291 10.94005,20.33291 l 10.91377,19 -22.92506,0.5 -22.92506,0.5 -10.07913,17.5 c -5.54352,9.625 -10.44344,17.87068 -10.88871,18.32372 -0.44528,0.45305 -5.63037,-7.52625 -11.52243,-17.73178 z M 760.63392,703.25 c -4.67775,-8.1125 -9.64793,-16.6625 -11.04484,-19 L 747.04924,680 H 724.52462 C 712.13608,680 702,679.80677 702,679.5706 c 0,-0.23617 4.95,-9.02276 11,-19.52575 6.05,-10.50299 11,-19.36817 11,-19.7004 0,-0.33223 -4.95,-9.26224 -11,-19.84445 -6.05,-10.58221 -11,-19.5238 -11,-19.87019 C 702,600.28341 712.26115,600 724.80255,600 h 22.80255 l 10.83296,-19.02903 c 9.42202,-16.55058 10.9893,-18.79732 12.03322,-17.25 0.66014,0.97847 5.60347,9.54153 10.98518,19.02903 l 9.78492,17.25 h 22.87931 C 826.70431,600 837,600.27439 837,600.60976 c 0,0.33537 -4.48645,8.38446 -9.9699,17.88687 -5.48344,9.50242 -10.48156,18.4001 -11.10692,19.77263 -1.03149,2.26387 -0.10602,4.28049 9.96989,21.72472 C 832.00188,670.57004 837,679.39796 837,679.61159 c 0,0.21362 -10.2375,0.39461 -22.75,0.40219 l -22.75,0.0138 -10.88232,18.98623 C 774.6324,709.4562 769.60116,718 769.43713,718 c -0.16402,0 -4.12547,-6.6375 -8.80321,-14.75 z M 403.8125,519.31689 c 0.72187,-0.28887 1.58438,-0.25335 1.91667,0.0789 0.33229,0.33229 -0.25834,0.56864 -1.3125,0.52522 -1.16495,-0.048 -1.4019,-0.28494 -0.60417,-0.60416 z M 700.2607,445 c 32.20482,-68.56508 32.77924,-157.53867 1.63828,-253.7567 -4.27857,-13.21975 -15.5089,-42.6545 -18.42732,-48.2981 l -1.6707,-3.23078 -47.90919,118.33408 c -26.35006,65.08374 -47.56777,118.6167 -47.15048,118.96211 0.41729,0.34542 4.13371,1.89635 8.25871,3.44651 35.53857,13.35527 70.7705,41.79215 92,74.25633 l 4.5,6.88141 2.38414,-4.04743 C 695.19541,455.32134 698.06486,449.675 700.2607,445 Z"
         id="path218" />
      <path
         style="fill:#117d7a"
         d="M 0,500 V 0 h 500 500 v 500 500 H 500 0 Z m 417.42106,402.5354 c 53.03236,-7.67326 102.3335,-39.00226 131.77272,-83.73653 2.82279,-4.28938 5.39648,-7.79493 5.71929,-7.79012 0.32281,0.005 2.37751,2.7875 4.56599,6.18375 9.0048,13.97431 27.80417,34.08201 42.02094,44.94534 25.26274,19.30379 54.37418,31.92894 86.5,37.51362 14.10501,2.45198 40.45452,2.88587 55.53375,0.91445 43.40455,-5.67459 81.3111,-24.27615 112.05576,-54.98817 27.24824,-27.21932 44.93771,-59.91786 53.04109,-98.0451 C 912.13269,731.05497 913.05629,700.13825 910.55844,683 904.3556,640.441 885.78278,602.91098 856.36661,573.49481 829.77982,546.90802 799.15447,529.99906 761,520.8407 c -10.6265,-2.55072 -15.42266,-3.11078 -32,-3.73674 -19.48596,-0.73578 -38.39819,0.0517 -45,1.87367 -1.925,0.53127 -8.18756,2.13067 -13.91681,3.55423 -43.64295,10.84405 -84.22671,39.66448 -110.8718,78.73528 l -5.97892,8.76715 -6.69071,-9.43885 C 538.7591,589.61612 527.81634,577.41289 516.5,567.0932 500.53034,552.53002 473.29046,536.47154 452.69515,529.4789 l -8.54791,-2.90224 -0.65067,-6.03833 C 432.63707,419.76059 394.51624,346.42456 328.5,299.31039 275.28742,261.33387 202.02611,235.51827 124.77844,227.52359 116.68158,226.68562 109.4648,226 108.74115,226 c -0.77022,0 -1.41181,1.34748 -1.54746,3.25 -0.12744,1.7875 -0.65965,6.85 -1.18267,11.25 -5.93651,49.94156 -2.11506,113.94901 9.6122,161 19.39797,77.82667 59.71311,133.78741 124.03612,172.17235 l 9.22216,5.50335 -7.06204,8.16215 c -9.33532,10.78955 -19.17332,25.81174 -26.06384,39.79831 -37.44527,76.00746 -20.33618,168.05194 41.95527,225.71345 43.56731,40.32908 100.96533,58.18559 159.71017,49.68579 z m 28.11865,-91.94346 -10.71283,-18.5555 -22.78664,-0.26822 L 389.25359,791.5 400.57857,771.73208 411.90354,751.96417 400.5068,732.23208 389.11006,712.5 l 23.06148,-0.5 23.06148,-0.5 10.13349,-17.55103 c 5.57342,-9.65306 10.50744,-17.75306 10.96449,-18 0.45705,-0.24693 5.50122,7.65103 11.20926,17.55103 l 10.37825,18 23.05255,0.5 23.05254,0.5 -11.0118,19.16709 c -6.05649,10.5419 -10.99997,19.7669 -10.98552,20.5 0.0145,0.7331 4.93748,9.88291 10.94005,20.33291 l 10.91377,19 -22.92506,0.5 -22.92506,0.5 -10.07913,17.5 c -5.54352,9.625 -10.44344,17.87068 -10.88871,18.32372 -0.44528,0.45305 -5.63037,-7.52625 -11.52243,-17.73178 z M 760.63392,703.25 c -4.67775,-8.1125 -9.64793,-16.6625 -11.04484,-19 L 747.04924,680 H 724.52462 C 712.13608,680 702,679.80677 702,679.5706 c 0,-0.23617 4.95,-9.02276 11,-19.52575 6.05,-10.50299 11,-19.36817 11,-19.7004 0,-0.33223 -4.95,-9.26224 -11,-19.84445 -6.05,-10.58221 -11,-19.5238 -11,-19.87019 C 702,600.28341 712.26115,600 724.80255,600 h 22.80255 l 10.83296,-19.02903 c 9.42202,-16.55058 10.9893,-18.79732 12.03322,-17.25 0.66014,0.97847 5.60347,9.54153 10.98518,19.02903 l 9.78492,17.25 h 22.87931 C 826.70431,600 837,600.27439 837,600.60976 c 0,0.33537 -4.48645,8.38446 -9.9699,17.88687 -5.48344,9.50242 -10.48156,18.4001 -11.10692,19.77263 -1.03149,2.26387 -0.10602,4.28049 9.96989,21.72472 C 832.00188,670.57004 837,679.39796 837,679.61159 c 0,0.21362 -10.2375,0.39461 -22.75,0.40219 l -22.75,0.0138 -10.88232,18.98623 C 774.6324,709.4562 769.60116,718 769.43713,718 c -0.16402,0 -4.12547,-6.6375 -8.80321,-14.75 z M 251,575.80649 c 0,-0.19887 2.8125,-2.79668 6.25,-5.77292 3.4375,-2.97624 5.125,-4.15656 3.75,-2.62294 -2.49162,2.77906 -10,9.08299 -10,8.39586 z M 266,562.5 c 1.29175,-1.375 2.57363,-2.5 2.84863,-2.5 0.275,0 -0.55688,1.125 -1.84863,2.5 -1.29175,1.375 -2.57363,2.5 -2.84863,2.5 -0.275,0 0.55688,-1.125 1.84863,-2.5 z m 10.5,-7.96959 c 3.01942,-2.6463 6.5,-4.9141 6.5,-4.23511 0,0.20111 -2.1375,1.82788 -4.75,3.61503 -3.59519,2.45939 -4.02065,2.61014 -1.75,0.62008 z m 13.5,-8.96004 c 0,-0.275 0.9,-0.98167 2,-1.57037 1.1,-0.5887 2,-0.84537 2,-0.57037 0,0.275 -0.9,0.98167 -2,1.57037 -1.1,0.5887 -2,0.84537 -2,0.57037 z M 311,534.5 c 1.375,-0.78602 2.95,-1.42913 3.5,-1.42913 0.55,0 -0.125,0.64311 -1.5,1.42913 -1.375,0.78602 -2.95,1.42913 -3.5,1.42913 -0.55,0 0.125,-0.64311 1.5,-1.42913 z m 33.8125,-11.18311 c 0.72187,-0.28887 1.58438,-0.25335 1.91667,0.0789 0.33229,0.33229 -0.25834,0.56864 -1.3125,0.52522 -1.16495,-0.048 -1.4019,-0.28494 -0.60417,-0.60416 z M 697.1283,451.75 c 18.24173,-36.33078 26.46884,-71.02307 27.56812,-116.25 1.04752,-43.09735 -4.50415,-82.54293 -18.3493,-130.37486 -6.2925,-21.73923 -21.32419,-62.31138 -24.21335,-65.35448 -0.55077,-0.58012 -95.10247,231.16107 -96.30851,236.04705 -0.20859,0.84504 2.54441,2.37402 7.67474,4.26247 37.33603,13.74321 73.47732,43.10054 95.00021,77.16803 1.64989,2.61152 3.10819,4.74902 3.24067,4.75 0.13249,9.9e-4 2.55683,-4.61071 5.38742,-10.24821 z"
         id="path216" />
      <path
         style="fill:#8e0047"
         d="M 0,500 V 0 h 500 500 v 500 500 H 500 0 Z m 417.42106,402.5354 c 53.03236,-7.67326 102.3335,-39.00226 131.77272,-83.73653 2.82279,-4.28938 5.39648,-7.79493 5.71929,-7.79012 0.32281,0.005 2.37751,2.7875 4.56599,6.18375 9.0048,13.97431 27.80417,34.08201 42.02094,44.94534 25.26274,19.30379 54.37418,31.92894 86.5,37.51362 14.10501,2.45198 40.45452,2.88587 55.53375,0.91445 43.40455,-5.67459 81.3111,-24.27615 112.05576,-54.98817 27.24824,-27.21932 44.93771,-59.91786 53.04109,-98.0451 C 912.13269,731.05497 913.05629,700.13825 910.55844,683 904.3556,640.441 885.78278,602.91098 856.36661,573.49481 829.77982,546.90802 799.15447,529.99906 761,520.8407 c -10.6265,-2.55072 -15.42266,-3.11078 -32,-3.73674 -19.48596,-0.73578 -38.39819,0.0517 -45,1.87367 -1.925,0.53127 -8.18756,2.13067 -13.91681,3.55423 -43.64295,10.84405 -84.22671,39.66448 -110.8718,78.73528 l -5.97892,8.76715 -6.69071,-9.43885 C 538.7591,589.61612 527.81634,577.41289 516.5,567.0932 500.54222,552.54086 473.29049,536.47155 452.73109,529.4911 l -8.51198,-2.89004 -0.66659,-7.05053 C 439.04356,471.85917 423.92181,420.07916 403.88737,383.72878 357.1237,298.88105 262.57506,244.79185 131.71175,228.0231 c -18.45746,-2.36513 -24.70261,-2.56034 -24.73303,-0.7731 -0.0117,0.6875 -0.69662,6.875 -1.52205,13.75 -2.15365,17.93784 -2.99303,64.75179 -1.53302,85.5 4.87496,69.27805 21.46852,123.82793 51.56031,169.5 16.73985,25.40706 43.54741,51.58918 72.53862,70.84626 6.33742,4.20956 13.58886,8.74558 16.11431,10.08004 l 4.59174,2.4263 -6.98561,8.0737 c -9.26333,10.70621 -19.11483,25.75972 -25.9874,39.70986 -37.44527,76.00746 -20.33618,168.05194 41.95527,225.71345 43.56731,40.32908 100.96533,58.18559 159.71017,49.68579 z m 28.11865,-91.94346 -10.71283,-18.5555 -22.78664,-0.26822 L 389.25359,791.5 400.57857,771.73208 411.90354,751.96417 400.5068,732.23208 389.11006,712.5 l 23.06148,-0.5 23.06148,-0.5 10.13349,-17.55103 c 5.57342,-9.65306 10.50744,-17.75306 10.96449,-18 0.45705,-0.24693 5.50122,7.65103 11.20926,17.55103 l 10.37825,18 23.05255,0.5 23.05254,0.5 -11.0118,19.16709 c -6.05649,10.5419 -10.99997,19.7669 -10.98552,20.5 0.0145,0.7331 4.93748,9.88291 10.94005,20.33291 l 10.91377,19 -22.92506,0.5 -22.92506,0.5 -10.07913,17.5 c -5.54352,9.625 -10.44344,17.87068 -10.88871,18.32372 -0.44528,0.45305 -5.63037,-7.52625 -11.52243,-17.73178 z M 760.63392,703.25 c -4.67775,-8.1125 -9.64793,-16.6625 -11.04484,-19 L 747.04924,680 H 724.52462 C 712.13608,680 702,679.80677 702,679.5706 c 0,-0.23617 4.95,-9.02276 11,-19.52575 6.05,-10.50299 11,-19.36817 11,-19.7004 0,-0.33223 -4.95,-9.26224 -11,-19.84445 -6.05,-10.58221 -11,-19.5238 -11,-19.87019 C 702,600.28341 712.26115,600 724.80255,600 h 22.80255 l 10.83296,-19.02903 c 9.42202,-16.55058 10.9893,-18.79732 12.03322,-17.25 0.66014,0.97847 5.60347,9.54153 10.98518,19.02903 l 9.78492,17.25 h 22.87931 C 826.70431,600 837,600.27439 837,600.60976 c 0,0.33537 -4.48645,8.38446 -9.9699,17.88687 -5.48344,9.50242 -10.48156,18.4001 -11.10692,19.77263 -1.03149,2.26387 -0.10602,4.28049 9.96989,21.72472 C 832.00188,670.57004 837,679.39796 837,679.61159 c 0,0.21362 -10.2375,0.39461 -22.75,0.40219 l -22.75,0.0138 -10.88232,18.98623 C 774.6324,709.4562 769.60116,718 769.43713,718 c -0.16402,0 -4.12547,-6.6375 -8.80321,-14.75 z M 695.6157,455.3595 c 2.04247,-3.65228 5.83137,-11.63978 8.41978,-17.75 16.37861,-38.66345 23.14685,-80.36349 20.84027,-128.39957 -1.94874,-40.58397 -10.41805,-82.35585 -25.83759,-127.4349 -6.33321,-18.51512 -15.58979,-41.37989 -17.14017,-42.33807 -1.28606,-0.79484 -21.48761,7.46703 -40.46173,16.5477 -50.59373,24.21324 -100.13757,59.63523 -130.66291,93.41909 -36.22769,40.09491 -56.34935,77.94291 -66.22294,124.56257 -2.13039,10.05899 -2.20431,11.16645 -0.71351,10.69023 0.91471,-0.29219 6.5648,-2.38532 12.55576,-4.65139 23.77286,-8.99206 41.51483,-12.19767 67.60734,-12.21525 25.70979,-0.0173 42.6581,2.82227 64.96177,10.88396 41.02418,14.82824 75.399,41.70381 97.95934,76.5884 2.39656,3.70575 4.4977,6.73773 4.66919,6.73773 0.1715,0 1.98293,-2.98823 4.0254,-6.6405 z"
         id="path214" />
      <path
         style="fill:#730447"
         d="M 0,500 V 0 h 500 500 v 500 500 H 500 0 Z m 411.15826,403.43769 c 23.63029,-2.9913 41.41976,-8.19768 61.40198,-17.97031 21.78803,-10.65579 41.01256,-24.69098 56.61786,-41.33483 7.38726,-7.87889 20.76216,-25.18256 23.38434,-30.25329 0.8189,-1.58359 1.81486,-2.87532 2.21324,-2.87051 0.39838,0.005 2.5149,2.7875 4.70338,6.18375 9.0048,13.97431 27.80417,34.08201 42.02094,44.94534 25.26274,19.30379 54.37418,31.92894 86.5,37.51362 14.10501,2.45198 40.45452,2.88587 55.53375,0.91445 43.40455,-5.67459 81.3111,-24.27615 112.05576,-54.98817 27.24824,-27.21932 44.93771,-59.91786 53.04109,-98.0451 C 912.13269,731.05497 913.05629,700.13825 910.55844,683 904.3556,640.441 885.78278,602.91098 856.36661,573.49481 829.79753,546.92574 799.31704,530.08889 761,520.8161 c -10.65215,-2.57784 -15.1112,-3.10432 -30.16382,-3.56148 l -17.66383,-0.53646 -1.65341,-6.58226 c -2.55356,-10.16578 -8.17764,-24.52697 -14.38491,-36.73212 l -5.64329,-11.09622 3.25129,-5.40378 c 8.14516,-13.53759 19.02986,-42.97116 23.70402,-64.09859 3.70974,-16.76819 5.56649,-30.97919 6.48024,-49.59791 2.44723,-49.86504 -6.22622,-103.95063 -25.88813,-161.43225 -6.33321,-18.51512 -15.58979,-41.37989 -17.14017,-42.33807 -1.28606,-0.79484 -21.48761,7.46703 -40.46173,16.5477 -50.59373,24.21324 -100.13757,59.63523 -130.66291,93.41909 -36.22769,40.09491 -56.34935,77.94291 -66.22294,124.56257 -2.13039,10.05899 -2.20431,11.16645 -0.71351,10.69023 0.91471,-0.29219 6.5648,-2.38532 12.55576,-4.65139 20.6772,-7.82113 37.20358,-11.19095 61.35734,-12.51109 13.29176,-0.72647 15.34678,0.0918 7.5,2.98646 -7.50347,2.76798 -27.03351,12.73584 -35.25,17.9911 -18.59444,11.893 -40.06452,31.66652 -52.42064,48.27837 -3.78415,5.0875 -7.1506,9.25 -7.48101,9.25 -0.3304,0 -2.78017,-6.47885 -5.44392,-14.39745 C 403.56031,368.89562 366.49172,321.8507 310.74022,287.03045 263.45177,257.49589 200.94898,236.89512 131.71175,228.0231 c -18.45746,-2.36513 -24.70261,-2.56034 -24.73303,-0.7731 -0.0117,0.6875 -0.69662,6.875 -1.52205,13.75 -2.15365,17.93784 -2.99303,64.75179 -1.53302,85.5 4.87496,69.27805 21.46852,123.82793 51.56031,169.5 18.95535,28.76964 49.84182,57.59859 83.12721,77.58963 l 10.24777,6.15476 -3.52039,3.37781 c -4.69658,4.50637 -15.93859,19.57986 -21.54353,28.88595 -17.81163,29.57333 -26.44537,59.0983 -27.48527,93.99185 -1.409,47.27912 13.08875,90.69449 42.40927,127 7.11167,8.80587 23.25142,24.61967 31.78098,31.13915 41.04462,31.37201 91.62959,45.50495 140.65826,39.29854 z M 760.63392,703.25 c -4.67775,-8.1125 -9.64793,-16.6625 -11.04484,-19 L 747.04924,680 H 724.52462 C 712.13608,680 702,679.80677 702,679.5706 c 0,-0.23617 4.95,-9.02276 11,-19.52575 6.05,-10.50299 11,-19.36817 11,-19.7004 0,-0.33223 -4.95,-9.26224 -11,-19.84445 -6.05,-10.58221 -11,-19.5238 -11,-19.87019 C 702,600.28341 712.26115,600 724.80255,600 h 22.80255 l 10.83296,-19.02903 c 9.42202,-16.55058 10.9893,-18.79732 12.03322,-17.25 0.66014,0.97847 5.60347,9.54153 10.98518,19.02903 l 9.78492,17.25 h 22.87931 C 826.70431,600 837,600.27439 837,600.60976 c 0,0.33537 -4.48645,8.38446 -9.9699,17.88687 -5.48344,9.50242 -10.48156,18.4001 -11.10692,19.77263 -1.03149,2.26387 -0.10602,4.28049 9.96989,21.72472 C 832.00188,670.57004 837,679.39796 837,679.61159 c 0,0.21362 -10.2375,0.39461 -22.75,0.40219 l -22.75,0.0138 -10.88232,18.98623 C 774.6324,709.4562 769.60116,718 769.43713,718 c -0.16402,0 -4.12547,-6.6375 -8.80321,-14.75 z M 443.07895,517.41667 c 0.048,-1.16495 0.28494,-1.4019 0.60416,-0.60417 0.28887,0.72187 0.25335,1.58438 -0.0789,1.91667 -0.33229,0.33229 -0.56864,-0.25834 -0.52522,-1.3125 z M 667.40499,430.75 665.5,428.5 l 2.25,1.90499 c 1.2375,1.04774 2.25,2.06024 2.25,2.25 0,0.80025 -0.80479,0.20945 -2.59501,-1.90499 z m -10.9679,-11 -2.93709,-3.25 3.25,2.93709 c 1.7875,1.6154 3.25,3.0779 3.25,3.25 0,0.77256 -0.82513,0.0924 -3.56291,-2.93709 z M 562.8125,371.31689 c 0.72187,-0.28887 1.58438,-0.25335 1.91667,0.0789 0.33229,0.33229 -0.25834,0.56864 -1.3125,0.52522 -1.16495,-0.048 -1.4019,-0.28494 -0.60417,-0.60416 z m -12,-2 c 0.72187,-0.28887 1.58438,-0.25335 1.91667,0.0789 0.33229,0.33229 -0.25834,0.56864 -1.3125,0.52522 -1.16495,-0.048 -1.4019,-0.28494 -0.60417,-0.60416 z M 540.25,368.31067 c 0.9625,-0.25152 2.5375,-0.25152 3.5,0 0.9625,0.25153 0.175,0.45733 -1.75,0.45733 -1.925,0 -2.7125,-0.2058 -1.75,-0.45733 z"
         id="path212" />
      <path
         style="fill:#50003c"
         d="M 0,500 V 0 h 500 500 v 500 500 H 500 0 Z m 412.69878,403.47084 c 22.88429,-2.96526 41.89467,-8.72723 61.80162,-18.73182 31.60038,-15.88133 58.90319,-40.34301 76.99981,-68.98723 1.64989,-2.61152 3.26506,-4.74902 3.58927,-4.75 0.32422,-9.9e-4 1.06509,1.04204 1.64638,2.31782 2.11893,4.65056 16.3195,22.5147 24.43642,30.74073 28.59888,28.9833 63.27329,47.47082 103.32772,55.09172 16.97965,3.23061 45.8688,3.65596 63.38015,0.93318 40.52561,-6.30118 75.49736,-23.46811 104.94121,-51.51354 29.18551,-27.79935 49.04508,-64.76771 56.89629,-105.9118 1.36305,-7.14299 1.75171,-14.55453 1.76513,-33.6599 0.0153,-21.71531 -0.24691,-25.8071 -2.30662,-36 C 895.59426,605.78734 849.14141,551.18531 786,528.21518 c -19.99855,-7.27525 -33.12932,-10.0344 -54.19512,-11.38795 l -18.69512,-1.20123 -1.18983,-5.063 c -2.12586,-9.04609 -7.81237,-23.79634 -13.98227,-36.2687 l -6.038,-12.20569 4.02012,-7.32486 c 8.80914,-16.0507 17.77078,-40.72197 22.50597,-61.95856 3.71789,-16.67417 5.5832,-30.90618 6.50054,-49.59791 2.44723,-49.86504 -6.22622,-103.95063 -25.88813,-161.43225 -6.33321,-18.51512 -15.58979,-41.37989 -17.14017,-42.33807 -1.28606,-0.79484 -21.48761,7.46703 -40.46173,16.5477 -50.59373,24.21324 -100.13757,59.63523 -130.66291,93.41909 -36.19949,40.0637 -56.35098,77.95062 -66.20305,124.46866 -1.29619,6.12018 -2.06727,11.13511 -1.71351,11.1443 0.35377,0.009 -3.04814,1.9987 -7.55978,4.42114 -4.51164,2.42244 -11.33821,6.4326 -15.17016,8.91147 l -6.96717,4.50704 -1.66147,-4.15244 c -2.64161,-6.60203 -12.10888,-23.3296 -19.34508,-34.1805 C 343.30649,291.27638 252.03831,243.44168 131.71175,228.0231 c -18.45746,-2.36513 -24.70261,-2.56034 -24.73303,-0.7731 -0.0117,0.6875 -0.69662,6.875 -1.52205,13.75 -2.15365,17.93784 -2.99303,64.75179 -1.53302,85.5 4.87496,69.27805 21.46852,123.82793 51.56031,169.5 18.86988,28.63993 50.5307,58.19154 83.28829,77.73973 8.24365,4.91942 9.13051,5.72083 7.91276,7.15033 -25.8021,30.28883 -39.8148,57.80849 -47.3014,92.89563 -3.45721,16.20277 -4.40852,47.31349 -1.96356,64.21431 6.13818,42.4302 24.93682,80.25931 54.64853,109.97102 42.45371,42.45371 102.14561,63.07804 160.6302,55.49982 z m 345.76988,-204.47967 -10.9056,-18.95538 -22.72104,-0.2679 -22.72104,-0.26789 10.91323,-19 c 6.00227,-10.45 10.92505,-19.55091 10.93951,-20.22425 C 723.98817,639.60241 719.05,630.45814 713,619.95515 706.95,609.45216 702,600.66557 702,600.4294 702,600.19323 712.32185,600 724.93744,600 h 22.93744 l 9.61606,-16.88203 c 5.28883,-9.28512 10.19476,-17.67347 10.90208,-18.64078 1.13634,-1.55404 2.5117,0.38184 11.81635,16.63203 l 10.53032,18.39078 23.13015,0.26843 C 826.59143,599.91607 837,600.19992 837,600.39921 c 0,0.1993 -5.12481,9.24551 -11.38847,20.10271 l -11.38847,19.74034 11.30375,19.62887 11.30374,19.62887 -22.82008,0.2682 -22.82008,0.26819 -5.51251,9.73181 c -3.03189,5.35249 -7.94051,13.88227 -10.90807,18.95508 l -5.39555,9.22327 z M 521.76791,367.27527 c 1.79735,-0.22256 4.49735,-0.21797 6,0.0102 1.50265,0.22818 0.0321,0.41027 -3.26791,0.40466 -3.3,-0.006 -4.52944,-0.1923 -2.73209,-0.41486 z"
         id="path210" />
      <path
         style="fill:#230040"
         d="M 0,500 V 0 h 500 500 v 500 500 H 500 0 Z m 414.21562,403.42685 c 13.9324,-1.9423 21.5993,-3.65709 33.61574,-7.51853 40.7769,-13.1035 76.95384,-40.41644 101.50883,-76.63736 l 5.57865,-8.22904 5.9916,8.72904 c 25.52482,37.18662 66.33641,65.45023 110.58956,76.58756 30.42548,7.65728 66.41519,7.66922 95.5,0.0317 48.25123,-12.67055 87.50088,-40.97006 114.96351,-82.8902 11.86749,-18.11505 22.60694,-44.81796 27.26392,-67.7899 2.00389,-9.88475 2.27257,-14.16582 2.27257,-36.2101 0,-27.50009 -1.18176,-36.47419 -7.51062,-57.03449 C 886.19322,594.65185 842.815,548.96854 785.74376,527.9364 765.0977,520.32783 748.87781,517.40019 718.14869,515.7357 L 713.79738,515.5 710.59636,505 c -3.67049,-12.04 -9.1744,-25.30344 -14.81071,-35.69121 l -3.90189,-7.1912 4.02807,-7.33936 c 8.81709,-16.06519 17.77703,-40.7288 22.51392,-61.97304 3.71789,-16.67417 5.5832,-30.90618 6.50054,-49.59791 2.44723,-49.86504 -6.22622,-103.95063 -25.88813,-161.43225 -6.33321,-18.51512 -15.58979,-41.37989 -17.14017,-42.33807 -1.28606,-0.79484 -21.48761,7.46703 -40.46173,16.5477 -50.59373,24.21324 -100.13757,59.63523 -130.66291,93.41909 -36.22231,40.08895 -56.34966,77.94439 -66.21914,124.54462 -1.30504,6.16196 -2.52612,11.34024 -2.71351,11.50729 -0.18738,0.16706 -2.72911,1.50359 -5.64828,2.97007 -4.73248,2.37741 -14.74832,8.27435 -20.93168,12.32375 -2.14964,1.40777 -2.31411,1.29206 -4.10977,-2.89151 -3.11276,-7.25217 -11.95635,-22.76741 -19.0005,-33.33455 C 343.33344,291.29151 252.03701,243.44151 131.71175,228.0231 c -18.45746,-2.36513 -24.70261,-2.56034 -24.73303,-0.7731 -0.0117,0.6875 -0.69662,6.875 -1.52205,13.75 -2.15365,17.93784 -2.99303,64.75179 -1.53302,85.5 4.87496,69.27805 21.46852,123.82793 51.56031,169.5 18.85399,28.6158 50.53396,58.19348 83.22435,77.70157 l 9.22029,5.50224 -6.85997,8.14809 c -17.98936,21.36732 -32.58202,49.24257 -39.05953,74.61248 -4.57256,17.90894 -5.26211,23.38067 -5.73841,45.53562 -0.41731,19.41097 -0.21611,23.51857 1.70962,34.90387 4.91444,29.05514 14.54886,53.5877 30.16663,76.81466 30.84364,45.87108 78.3642,75.7449 133.85306,84.14678 13.02457,1.97212 38.29712,2.00191 52.21562,0.0615 z"
         id="path208" />
    </g>
  </g>
</svg>
